<?xml version="1.0" standalone="no"?>
<!DOCTYPE svg PUBLIC "-//W3C//DTD SVG 20010904//EN"
 "http://www.w3.org/TR/2001/REC-SVG-20010904/DTD/svg10.dtd">
<svg version="1.0" xmlns="http://www.w3.org/2000/svg"
 width="512.000000pt" height="512.000000pt" viewBox="0 0 512.000000 512.000000"
 preserveAspectRatio="xMidYMid meet">
<metadata>
Created by potrace 1.11, written by Peter Selinger 2001-2013
</metadata>
<g transform="translate(0.000000,512.000000) scale(0.100000,-0.100000)"
fill="#000000" stroke="none">
<path d="M759 3923 c-6 -102 -25 -93 201 -93 l200 0 1 -22 c4 -137 -1 -1993
-6 -2053 -17 -215 -53 -355 -108 -413 -50 -54 -153 -75 -215 -45 -46 22 -67
56 -108 175 -38 108 -50 135 -69 154 -25 25 -81 46 -129 48 -91 5 -151 -28
-186 -99 -68 -141 10 -287 191 -354 220 -82 494 -63 672 47 118 73 241 234
290 383 19 55 45 186 51 249 2 25 5 469 5 988 l1 942 180 0 181 0 -3 58 -3 57
-572 0 -573 0 -1 -22z"/>
<path d="M2252 3940 c-4 -3 -8 -29 -8 -57 l-1 -53 181 -2 181 -3 0 -1218 c0
-670 -2 -1223 -5 -1230 -4 -9 -52 -12 -180 -12 l-175 0 0 -57 -1 -58 551 0
551 0 -1 58 -1 57 -177 0 -177 0 0 560 0 561 211 -1 211 0 17 -25 c15 -21 327
-555 410 -701 14 -25 87 -150 161 -277 l135 -232 336 0 c185 0 338 2 341 6 10
9 -10 76 -27 93 -12 12 -39 16 -113 18 -53 1 -106 2 -118 2 -16 1 -47 43 -131
179 -61 97 -219 351 -352 565 -133 213 -244 393 -247 401 -4 9 19 21 80 40
301 94 506 321 544 604 27 200 -33 386 -168 523 -36 36 -81 77 -100 90 -118
85 -268 142 -436 165 -51 7 -1482 12 -1492 4z m1307 -120 c78 -16 84 -18 141
-39 163 -62 283 -222 325 -432 11 -51 6 -198 -9 -267 -36 -175 -154 -331 -306
-406 -41 -20 -86 -38 -100 -41 -14 -3 -38 -8 -55 -11 -33 -8 -532 -13 -552 -6
-10 3 -13 134 -13 608 l0 605 262 -1 c144 -1 282 -5 307 -10z"/>
</g>
</svg>
